<mxfile host="Electron" modified="2023-10-07T18:56:01.455Z" agent="Mozilla/5.0 (Windows NT 10.0; Win64; x64) AppleWebKit/537.36 (KHTML, like Gecko) draw.io/22.0.2 Chrome/114.0.5735.289 Electron/25.8.4 Safari/537.36" etag="Ky_U5wrH1dsnoUz5FgXJ" version="22.0.2" type="device">
  <diagram name="Page-1" id="iQWDSAbWx90p4zz4TPS3">
    <mxGraphModel dx="5690" dy="1393" grid="0" gridSize="10" guides="1" tooltips="1" connect="1" arrows="1" fold="1" page="1" pageScale="1" pageWidth="3300" pageHeight="4681" background="none" math="0" shadow="1">
      <root>
        <mxCell id="0" />
        <mxCell id="1" parent="0" />
        <mxCell id="diqE9pZAazFMbEwen73W-1" value="&lt;h1 data-pm-slice=&quot;1 1 []&quot;&gt;Start up pyroBox&lt;/h1&gt;" style="rounded=1;whiteSpace=wrap;html=1;spacing=20;align=center;fontFamily=Verdana;" vertex="1" parent="1">
          <mxGeometry x="410" y="60" width="290" height="110" as="geometry" />
        </mxCell>
        <mxCell id="diqE9pZAazFMbEwen73W-2" value="&lt;ul style=&quot;font-size: 21px;&quot; data-pm-slice=&quot;3 3 []&quot;&gt;&lt;li&gt;&lt;p&gt;permissions set by command line args will be &lt;code&gt;&lt;font color=&quot;#66b2ff&quot;&gt;The Primary Permissions&lt;/font&gt;&lt;/code&gt;.&lt;/p&gt;&lt;/li&gt;&lt;li&gt;&lt;p&gt;&lt;code&gt;Guest &lt;font color=&quot;#7ea6e0&quot;&gt;users&lt;/font&gt;&lt;/code&gt;&lt;font color=&quot;#7ea6e0&quot;&gt; &lt;/font&gt;and &lt;code&gt;Members&lt;/code&gt; these permissions&lt;/p&gt;&lt;/li&gt;&lt;li&gt;&lt;p&gt;&lt;font color=&quot;#66b2ff&quot;&gt;&lt;code&gt;Admin&lt;/code&gt; &lt;/font&gt;Can change the permissions. &lt;/p&gt;&lt;/li&gt;&lt;li&gt;&lt;p&gt;If admin change &lt;code&gt;&lt;font color=&quot;#ff6666&quot;&gt;Guest permission&lt;/font&gt;&lt;/code&gt; the change will reflect in the future menu.&lt;/p&gt;&lt;/li&gt;&lt;li&gt;&lt;p&gt;However the change in &lt;code&gt;Guest permission&lt;/code&gt; is not saved. &lt;em&gt;(subject to change)&lt;/em&gt;&lt;/p&gt;&lt;/li&gt;&lt;/ul&gt;" style="rounded=1;whiteSpace=wrap;html=1;align=left;spacing=20;fontFamily=Verdana;" vertex="1" parent="1">
          <mxGeometry x="321" y="190" width="496" height="400" as="geometry" />
        </mxCell>
        <mxCell id="diqE9pZAazFMbEwen73W-5" style="edgeStyle=orthogonalEdgeStyle;rounded=0;orthogonalLoop=1;jettySize=auto;html=1;spacing=20;fontFamily=Verdana;" edge="1" parent="1" source="diqE9pZAazFMbEwen73W-3" target="diqE9pZAazFMbEwen73W-4">
          <mxGeometry relative="1" as="geometry" />
        </mxCell>
        <mxCell id="diqE9pZAazFMbEwen73W-17" value="" style="edgeStyle=orthogonalEdgeStyle;rounded=0;orthogonalLoop=1;jettySize=auto;html=1;fontFamily=Verdana;spacing=20;" edge="1" parent="1" source="diqE9pZAazFMbEwen73W-3" target="diqE9pZAazFMbEwen73W-2">
          <mxGeometry relative="1" as="geometry" />
        </mxCell>
        <mxCell id="diqE9pZAazFMbEwen73W-3" value="&lt;p style=&quot;font-size: 21px;&quot; data-pm-slice=&quot;1 1 []&quot;&gt;Start &lt;code&gt;&lt;font color=&quot;#99ff99&quot;&gt;main.py&lt;/font&gt;&lt;/code&gt; &lt;font color=&quot;#ff6666&quot;&gt;without name&lt;/font&gt;&lt;/p&gt;" style="rounded=1;whiteSpace=wrap;html=1;spacing=20;fontFamily=Verdana;" vertex="1" parent="1">
          <mxGeometry x="-31" y="326" width="190" height="130" as="geometry" />
        </mxCell>
        <mxCell id="diqE9pZAazFMbEwen73W-20" style="edgeStyle=orthogonalEdgeStyle;rounded=0;orthogonalLoop=1;jettySize=auto;html=1;exitX=1;exitY=0.75;exitDx=0;exitDy=0;entryX=0;entryY=0.5;entryDx=0;entryDy=0;fontFamily=Verdana;spacing=20;" edge="1" parent="1" source="diqE9pZAazFMbEwen73W-4" target="diqE9pZAazFMbEwen73W-6">
          <mxGeometry relative="1" as="geometry" />
        </mxCell>
        <mxCell id="diqE9pZAazFMbEwen73W-4" value="&lt;ul style=&quot;font-size: 21px;&quot; data-pm-slice=&quot;3 3 []&quot;&gt;&lt;li&gt;&lt;p style=&quot;text-align: left;&quot;&gt;enables &lt;code&gt;&lt;font color=&quot;#7ea6e0&quot;&gt;--guest-allowed&lt;/font&gt;&lt;/code&gt;&lt;/p&gt;&lt;/li&gt;&lt;li&gt;&lt;p style=&quot;text-align: left;&quot;&gt;creates a database in memory&lt;/p&gt;&lt;/li&gt;&lt;li&gt;&lt;p style=&quot;text-align: left;&quot;&gt;create a guest idreate a guest id&lt;/p&gt;&lt;/li&gt;&lt;li&gt;&lt;p style=&quot;text-align: left;&quot;&gt;check for &lt;strong&gt;permission flags&lt;/strong&gt; and set &lt;code&gt;guest_user&lt;/code&gt; permissions&lt;/p&gt;&lt;p&gt;&lt;/p&gt;&lt;/li&gt;&lt;/ul&gt;" style="rounded=1;whiteSpace=wrap;html=1;arcSize=9;spacing=20;fontFamily=Verdana;" vertex="1" parent="1">
          <mxGeometry x="-140" y="532" width="408" height="275" as="geometry" />
        </mxCell>
        <mxCell id="diqE9pZAazFMbEwen73W-6" value="&lt;ul style=&quot;font-size: 20px;&quot; data-pm-slice=&quot;3 3 []&quot;&gt;&lt;li&gt;&lt;p&gt;&amp;lt;PY+HTML&amp;gt; if still using guest ID, will permit user with only with the &lt;code&gt;&lt;font color=&quot;#7ea6e0&quot;&gt;Guest permissions&lt;/font&gt;&lt;/code&gt;&lt;/p&gt;&lt;/li&gt;&lt;li&gt;&lt;p&gt;&amp;lt;HTML&amp;gt; if &lt;code&gt;&lt;font color=&quot;#ff3333&quot;&gt;NOPERMISSION&lt;/font&gt;&lt;/code&gt; is guest permission of &lt;code&gt;&lt;font color=&quot;#ff6666&quot;&gt;View Permission&lt;/font&gt;&lt;/code&gt; is diabled, will show &quot;You must be logged in to view the contents&quot;&lt;/p&gt;&lt;/li&gt;&lt;/ul&gt;" style="rounded=1;whiteSpace=wrap;html=1;align=left;spacing=20;fontFamily=Verdana;" vertex="1" parent="1">
          <mxGeometry x="381" y="610" width="376" height="255" as="geometry" />
        </mxCell>
        <mxCell id="diqE9pZAazFMbEwen73W-12" value="" style="edgeStyle=orthogonalEdgeStyle;rounded=0;orthogonalLoop=1;jettySize=auto;html=1;fontFamily=Verdana;spacing=20;" edge="1" parent="1" source="diqE9pZAazFMbEwen73W-7" target="diqE9pZAazFMbEwen73W-2">
          <mxGeometry relative="1" as="geometry" />
        </mxCell>
        <mxCell id="diqE9pZAazFMbEwen73W-13" value="" style="edgeStyle=orthogonalEdgeStyle;rounded=0;orthogonalLoop=1;jettySize=auto;html=1;fontFamily=Verdana;spacing=20;" edge="1" parent="1" source="diqE9pZAazFMbEwen73W-7" target="diqE9pZAazFMbEwen73W-8">
          <mxGeometry relative="1" as="geometry" />
        </mxCell>
        <mxCell id="diqE9pZAazFMbEwen73W-16" style="edgeStyle=orthogonalEdgeStyle;rounded=0;orthogonalLoop=1;jettySize=auto;html=1;exitX=0.5;exitY=1;exitDx=0;exitDy=0;fontFamily=Verdana;spacing=20;" edge="1" parent="1" source="diqE9pZAazFMbEwen73W-7" target="diqE9pZAazFMbEwen73W-9">
          <mxGeometry relative="1" as="geometry" />
        </mxCell>
        <mxCell id="diqE9pZAazFMbEwen73W-7" value="&lt;p style=&quot;font-size: 25px;&quot; data-pm-slice=&quot;1 1 []&quot;&gt;Start &lt;code&gt;&lt;font color=&quot;#99ff99&quot;&gt;main.py&lt;/font&gt;&lt;/code&gt; &lt;font color=&quot;#ff6666&quot;&gt;with name&lt;/font&gt;&lt;/p&gt;" style="rounded=1;whiteSpace=wrap;html=1;spacing=20;fontFamily=Verdana;" vertex="1" parent="1">
          <mxGeometry x="875" y="334" width="311" height="112" as="geometry" />
        </mxCell>
        <mxCell id="diqE9pZAazFMbEwen73W-8" value="&lt;p style=&quot;font-size: 22px;&quot; data-pm-slice=&quot;1 3 []&quot;&gt;&lt;font style=&quot;font-size: 22px;&quot;&gt;IF &lt;code style=&quot;&quot;&gt;Admin&lt;/code&gt; username and password is NOT SET by &lt;code style=&quot;&quot;&gt;&lt;font color=&quot;#ff6666&quot;&gt;--admin-id&lt;/font&gt;&lt;/code&gt; and &lt;code style=&quot;&quot;&gt;&lt;font color=&quot;#ff6666&quot;&gt;--admin-pass&lt;/font&gt;&lt;/code&gt; then,&lt;/font&gt;&lt;/p&gt;&lt;ul style=&quot;font-size: 22px;&quot;&gt;&lt;li style=&quot;&quot;&gt;&lt;p&gt;&lt;font style=&quot;font-size: 22px;&quot;&gt;will ask in terminal before server starts.&lt;/font&gt;&lt;/p&gt;&lt;/li&gt;&lt;li style=&quot;&quot;&gt;&lt;p style=&quot;&quot;&gt;&lt;font style=&quot;font-size: 22px;&quot;&gt;keeps it in memory, thus not saved in database &lt;em&gt;(subject to change)&lt;/em&gt;&lt;/font&gt;&lt;/p&gt;&lt;h3 style=&quot;&quot;&gt;&lt;font style=&quot;font-size: 22px;&quot;&gt;Admin will have all permissions enabled&lt;/font&gt;&lt;/h3&gt;&lt;/li&gt;&lt;/ul&gt;" style="rounded=1;whiteSpace=wrap;html=1;align=left;arcSize=11;perimeterSpacing=0;spacing=20;fontFamily=Verdana;" vertex="1" parent="1">
          <mxGeometry x="1248" y="221.75" width="569.87" height="338.5" as="geometry" />
        </mxCell>
        <mxCell id="diqE9pZAazFMbEwen73W-21" style="edgeStyle=orthogonalEdgeStyle;rounded=0;orthogonalLoop=1;jettySize=auto;html=1;exitX=0;exitY=0.75;exitDx=0;exitDy=0;entryX=1;entryY=0.5;entryDx=0;entryDy=0;fontFamily=Verdana;spacing=20;" edge="1" parent="1" source="diqE9pZAazFMbEwen73W-9" target="diqE9pZAazFMbEwen73W-6">
          <mxGeometry relative="1" as="geometry" />
        </mxCell>
        <mxCell id="diqE9pZAazFMbEwen73W-9" value="&lt;h3 data-pm-slice=&quot;1 3 []&quot; style=&quot;font-size: 19px;&quot;&gt;IF &lt;code style=&quot;font-size: 19px;&quot;&gt;Guest&lt;/code&gt; is enabled from&lt;font color=&quot;#ff6666&quot;&gt; &lt;code style=&quot;font-size: 19px;&quot;&gt;Admin page&lt;/code&gt;&lt;/font&gt; or &lt;code style=&quot;font-size: 19px;&quot;&gt;&lt;font color=&quot;#ff6666&quot;&gt;--guest-allowed&lt;/font&gt;&lt;/code&gt;:&lt;/h3&gt;&lt;ul style=&quot;font-size: 19px;&quot;&gt;&lt;li style=&quot;font-size: 19px;&quot;&gt;&lt;p style=&quot;font-size: 19px;&quot;&gt;&amp;lt;PY+HTML&amp;gt; opening the server for 1st time will pop-up a (log in+Sign up) box, Can be closed.&lt;/p&gt;&lt;/li&gt;&lt;/ul&gt;" style="rounded=1;html=1;fontSize=19;align=left;whiteSpace=wrap;spacingTop=0;spacing=20;fontFamily=Verdana;" vertex="1" parent="1">
          <mxGeometry x="846.5" y="595" width="368" height="190" as="geometry" />
        </mxCell>
        <mxCell id="diqE9pZAazFMbEwen73W-10" value="&lt;h3 style=&quot;font-size: 20px;&quot; data-pm-slice=&quot;1 3 []&quot;&gt;&lt;font style=&quot;font-size: 20px;&quot;&gt;On every signup:&lt;/font&gt;&lt;/h3&gt;&lt;ul style=&quot;font-size: 20px;&quot;&gt;&lt;li style=&quot;&quot;&gt;&lt;p&gt;&lt;font style=&quot;font-size: 20px;&quot;&gt;check if &lt;code&gt;Admin&lt;/code&gt; &lt;code&gt;allows signup&lt;/code&gt; or not.&lt;/font&gt;&lt;/p&gt;&lt;p&gt;&lt;font style=&quot;font-size: 20px;&quot;&gt;if not, either show Signup not allowed or Hide Signup button or Show &quot;ask site admin to create account&quot;&lt;/font&gt;&lt;/p&gt;&lt;/li&gt;&lt;li style=&quot;&quot;&gt;&lt;p&gt;&lt;font style=&quot;font-size: 20px;&quot;&gt;check for username in admin + user datalist for duplicates&lt;/font&gt;&lt;/p&gt;&lt;/li&gt;&lt;li&gt;&lt;p&gt;&lt;/p&gt;&lt;/li&gt;&lt;/ul&gt;" style="rounded=1;whiteSpace=wrap;html=1;spacing=20;align=left;fontFamily=Verdana;" vertex="1" parent="1">
          <mxGeometry x="1239" y="650" width="511" height="318" as="geometry" />
        </mxCell>
      </root>
    </mxGraphModel>
  </diagram>
</mxfile>
